<svg width="16" height="12" viewBox="0 0 16 12" fill="none" xmlns="http://www.w3.org/2000/svg">
<path d="M1.5 5.25C1.08579 5.25 0.75 5.58579 0.75 6C0.75 6.41421 1.08579 6.75 1.5 6.75V5.25ZM15.0303 6.53033C15.3232 6.23744 15.3232 5.76256 15.0303 5.46967L10.2574 0.696699C9.96447 0.403806 9.48959 0.403806 9.1967 0.696699C8.90381 0.989593 8.90381 1.46447 9.1967 1.75736L13.4393 6L9.1967 10.2426C8.90381 10.5355 8.90381 11.0104 9.1967 11.3033C9.48959 11.5962 9.96447 11.5962 10.2574 11.3033L15.0303 6.53033ZM1.5 6.75H14.5V5.25H1.5V6.75Z" fill="white"/>
</svg>

