<svg width="38" height="34" viewBox="0 0 38 34" fill="none" xmlns="http://www.w3.org/2000/svg">
<path d="M0 17C0 21.6963 1.92111 25.925 4.98222 28.985L0 34H12.6667V21.25L7.93778 26.01C5.56223 23.6208 4.22587 20.3802 4.22222 17C4.22213 14.3651 5.03437 11.7951 6.5469 9.64464C8.05943 7.49414 10.1977 5.86911 12.6667 4.99375V0.5525C5.38333 2.44375 0 9.07375 0 17ZM16.8889 27.625H21.1111V23.375H16.8889V27.625ZM38 0H25.3333V12.75L30.0622 7.99C32.4378 10.3792 33.7741 13.6198 33.7778 17C33.7779 19.6349 32.9656 22.2049 31.4531 24.3554C29.9406 26.5059 27.8023 28.1309 25.3333 29.0062V33.4475C32.6167 31.5562 38 24.9263 38 17C38 12.3037 36.0789 8.075 33.0178 5.015L38 0ZM16.8889 19.125H21.1111V6.375H16.8889V19.125Z" fill="url(#paint0_linear_450_849)"/>
<defs>
<linearGradient id="paint0_linear_450_849" x1="0.888312" y1="17.2152" x2="38.2961" y2="17.2152" gradientUnits="userSpaceOnUse">
<stop stop-color="#4CA5FF"/>
<stop offset="1" stop-color="#B673F8"/>
</linearGradient>
</defs>
</svg>

